<svg width="470" height="470" viewBox="0 0 470 470" fill="none" xmlns="http://www.w3.org/2000/svg">
<g clip-path="url(#clip0)">
<path d="M394.667 384H74.75C68.865 384 64.094 388.771 64.083 394.656L64.041 425.76C64.031 437.395 68.551 448.333 76.77 456.562C84.999 464.802 95.926 469.333 107.562 469.333H361.812C385.812 469.333 405.333 449.812 405.333 425.812V394.666C405.333 388.771 400.563 384 394.667 384Z" fill="white"/>
<path d="M352 42.667C345.469 42.667 338.76 43.323 331.656 44.646C307.25 16.187 272.271 0 234.667 0C164.084 0 106.667 57.417 106.667 128C106.667 133.885 101.886 138.667 96 138.667C90.115 138.667 85.333 133.886 85.333 128C85.333 104.906 90.646 82.562 101.125 61.594C102.99 57.865 102.51 53.396 99.906 50.146C97.302 46.917 93.041 45.479 89 46.469C36.594 59.542 0 106.229 0 160C0 204.333 25 244.635 64.25 264.562L64.135 351.989C64.135 354.812 65.25 357.531 67.25 359.541C69.26 361.541 71.969 362.666 74.802 362.666H394.667C400.563 362.666 405.334 357.895 405.334 351.999V264.405C444.438 244.426 469.334 204.186 469.334 159.999C469.333 95.302 416.698 42.667 352 42.667ZM156.104 296.25C154.114 297.875 151.719 298.667 149.344 298.667C146.261 298.667 143.198 297.334 141.084 294.771C137.563 290.469 106.667 252.011 106.667 224C106.667 218.104 111.438 213.333 117.334 213.333C123.23 213.333 128.001 218.104 128.001 224C128.001 239.438 146.147 267.292 157.584 281.229C161.312 285.792 160.656 292.51 156.104 296.25ZM245.333 288C245.333 293.896 240.562 298.667 234.666 298.667C228.77 298.667 224 293.896 224 288V224C224 218.104 228.771 213.333 234.667 213.333C240.563 213.333 245.334 218.104 245.334 224V288H245.333ZM328.25 294.771C326.135 297.334 323.083 298.667 320 298.667C317.615 298.667 315.219 297.875 313.24 296.25C308.688 292.51 308.021 285.792 311.75 281.24C323.188 267.271 341.333 239.386 341.333 224C341.333 218.104 346.104 213.333 352 213.333C357.896 213.333 362.667 218.104 362.667 224C362.667 252.01 331.771 290.469 328.25 294.771Z" fill="white"/>
</g>
<defs>
<clipPath id="clip0">
<rect width="469.333" height="469.333" fill="white"/>
</clipPath>
</defs>
</svg>
