<svg width="492" height="492" viewBox="0 0 492 492" fill="none" xmlns="http://www.w3.org/2000/svg">
<path d="M442.627 185.388L265.083 7.844C260.019 2.78 253.263 0 245.915 0C238.711 0 231.959 2.78 226.895 7.844L49.347 185.388C38.859 195.88 38.859 212.956 49.347 223.44L65.467 239.568C70.531 244.628 77.287 247.412 84.495 247.412C91.699 247.412 98.687 244.628 103.747 239.568L207.555 135.984V465.068C207.555 479.9 219.171 492 234.003 492H256.803C271.635 492 284.427 479.9 284.427 465.068V134.816L388.823 239.568C393.883 244.628 400.459 247.412 407.667 247.412C414.875 247.412 421.531 244.628 426.599 239.568L442.671 223.44C453.163 212.952 453.123 195.88 442.627 185.388Z" fill="white"/>
</svg>
